<svg version="1.0" xmlns="http://www.w3.org/2000/svg" width="933.333" height="933.333" viewBox="0 0 700 700"><path d="M355 44c0 .5-.5 1-1.1 1-.6 0-3.3 1.1-6.1 2.5-2.7 1.4-5.6 2.5-6.4 2.5-.8 0-1.4.4-1.4 1 0 .5-.6 1-1.4 1-.7 0-3.8 1.3-6.8 2.9-3.1 1.7-5.8 2.8-6 2.5-.3-.2-1.1.2-1.8 1.1-.7.8-2 1.5-3 1.5s-2.3.7-3 1.5c-.7.8-1.9 1.5-2.7 1.5-1.4 0-9.4 3.8-10.3 4.9-.3.3-1.1.7-1.8.9-1.4.3-12.4 5.3-27.1 12.5-4.6 2.2-9 4-9.7 4-.8 0-1.4.3-1.4.7 0 .9-5.2 3.4-6.6 3.2-.6-.1-1.7.5-2.4 1.3s-2.1 1.5-3.1 1.5c-1.1 0-1.9.4-1.9 1 0 .5-.3.9-.7.8-.5-.1-3.7 1.2-7.3 2.9-3.6 1.7-7.2 3.3-8 3.5-.8.2-1.7.6-2 .9-.7.9-15.9 7.9-17.1 7.9-.5 0-.9.4-.9.9 0 .9-4.8 2.6-6.2 2.3-.5-.1-.8.3-.8.8 0 .6-.9 1-1.9 1-1.1 0-2.1.5-2.3 1.1-.2.5-1 1.1-1.8 1.3-2.4.4-7.4 3-8.2 4.1-.4.5-.8.7-.8.2 0-.4-2.1.4-4.7 1.7-7.5 3.8-20 9.6-20.8 9.6-.4 0-1.4.8-2.2 1.7-.8 1-1.2 1.3-.8.6.3-.7-2 .1-5.1 1.7-3.1 1.7-6.2 3-7 3-.8 0-1.4.4-1.4.9s-1.2 1.2-2.7 1.6c-1.5.3-3 1.1-3.4 1.6-.3.5-1.4 1.1-2.5 1.3-1 .2-3.2 1.1-4.9 2-1.6.9-3.6 1.6-4.2 1.6-.7 0-1.3.4-1.3 1 0 .5-.6 1-1.3 1-.7 0-3 .9-5.1 2-2.2 1-4.3 1.7-4.9 1.3-.6-.3-.7-.1-.3.5.3.6-.4 1.4-1.6 1.8-1.3.4-8.3 3.5-15.5 7L90 168.9v349.6l3.3 1.4c2.8 1.3 14.4 6.7 28.7 13.5 2.5 1.1 4.8 2.5 5.1 2.9.3.5 1 .9 1.5.9s2 .5 3.4 1.1c1.4.6 2.7 1.1 3 1.2.3.1 4 1.8 8.3 3.8 4.2 2 7.9 3.6 8.1 3.4.2-.1 1.4.7 2.6 1.8 1.2 1.1 2.3 1.8 2.4 1.7.1-.4 9.5 3.8 26.6 12 6.9 3.3 14.2 6.7 16.3 7.5 2 .8 3.7 1.8 3.7 2.2 0 .4.7.8 1.5.8s5.1 1.8 9.7 4 9.8 4.7 11.6 5.4c1.7.8 3.2 1.7 3.2 2.1 0 .5.3.7.8.6.4-.1 2 .4 3.5 1 1.6.7 3.3 1.2 3.8 1.2s.9.4.9 1c0 .5.5 1 1 1 .6 0 5.4 2.1 10.8 4.7 5.3 2.6 9.9 4.7 10.2 4.8.3.1 3.7 1.6 7.5 3.4 14.2 6.7 23.2 11 32 15.1 5 2.3 11.2 5.3 13.8 6.6 2.7 1.3 5.5 2.4 6.2 2.4.8 0 1.8.7 2.3 1.6.5.9 1.2 1.5 1.5 1.5.4-.1.9 0 1.2 0 .3.1.8.2 1.3.3.7.2 11.3 5.2 23.1 10.9 3.5 1.7 7 3.2 7.8 3.3.9.2 4.9-1.3 9-3.2 4-1.9 8.4-3.9 9.6-4.4 1.2-.6 2.9-1.4 3.7-1.9.8-.5 4-2.1 7-3.4 3-1.4 9.6-4.5 14.5-6.8 5-2.4 9.2-4.3 9.5-4.4.3 0 2.9-1.3 5.8-2.8 3-1.5 6-2.7 6.8-2.7.8 0 1.4-.5 1.4-1.1 0-.5.4-.8.9-.5.5.4 1.1.3 1.3-.2.3-.9 12-6.2 13.6-6.2.6 0 1.2-.4 1.4-.8.2-.4 3.3-2.1 7.1-3.7 3.7-1.5 6.7-3.2 6.7-3.7 0-.4.7-.8 1.5-.8s7.1-2.7 14-6 13-6 13.5-6c.6 0 1-.5 1-1.1 0-.5.4-.8.9-.4.5.3 1.2.1 1.6-.5.3-.5 1.5-1 2.5-1s2-.5 2.2-1.1c.2-.5 1-1.2 1.8-1.4 3.8-.8 6-1.8 6-2.6 0-.5.3-.8.8-.7.4.1 3.4-1.1 6.7-2.7 3.3-1.6 6.2-2.9 6.5-3 .3 0 5.8-2.6 12.3-5.8 6.5-3.1 12-5.7 12.2-5.7.2 0 7.9-3.6 17-8s16.7-8 16.9-8c.3 0 21.7-10.1 35.6-16.8 3-1.5 5.7-2.7 6-2.8 4.1-1.3 5-1.8 5-2.5 0-.5.3-.8.8-.7.4.1 1.7-.3 2.8-1l2.2-1.2V169l-11.2-5.4c-13.8-6.6-19.8-9.4-21.1-9.6-.5-.1-1.7-.8-2.7-1.6-.9-.9-2.2-1.6-3-1.8-1.3-.2-12.8-5.5-23.1-10.7-3.1-1.6-6.3-2.9-7.1-2.9-.7 0-1.9-.6-2.5-1.4-.7-.8-2.6-1.8-4.2-2.1-1.6-.4-2.9-1.1-2.9-1.7 0-.6-.3-.9-.6-.5-.4.3-4.6-1.4-9.5-3.9-4.9-2.4-8.9-4.1-8.9-3.7 0 .5-.7-.1-1.5-1.1-.8-1.1-1.5-1.6-1.5-1.2 0 .4-1.2 0-2.7-.8-1.6-.8-6.8-3.3-11.8-5.6-4.9-2.3-10.2-4.8-11.7-5.6-1.6-.8-2.8-1.2-2.8-.7 0 .4-.4.3-.8-.3-.5-.8-8.8-5.2-11.2-5.9-4-1.3-7-2.9-7-3.8 0-.6-.2-.8-.6-.5-.3.3-3.3-.8-6.7-2.5-3.4-1.7-6.8-3-7.4-2.8-.7.1-1.3-.3-1.3-.8 0-1-3.9-2.7-5.2-2.3-.5.1-.8-.3-.8-.8s-.3-.9-.7-.8c-.5.1-1.9-.4-3.3-1.2-1.4-.8-3.1-1.5-3.9-1.6-.8-.2-1.7-.7-2-1.2-.3-.5-1.7-1.3-3-1.7-1.3-.4-6.5-2.7-11.7-5.2-5.1-2.4-9.7-4.4-10.1-4.4-.4 0-1.5-.6-2.3-1.3-.8-.7-2.7-1.6-4.2-2-1.6-.3-2.8-1.1-2.8-1.6 0-.6-.6-1-1.3-1-.8 0-4.1-1.4-7.5-3-3.4-1.7-6.7-3-7.2-3-.6 0-1-.5-1-1 0-.6-.6-1-1.4-1-1.2 0-28-12.3-32.8-15-2.3-1.3-4.8-1.3-4.8 0z"/></svg>