<svg aria-hidden="true" style="width:0;height:0;position:absolute;overflow:hidden" xmlns="http://www.w3.org/2000/svg"><defs><symbol id="icon-Polygon-3" viewBox="0 0 45 32"><path d="M24.742 28.896a3.2 3.2 0 0 1-4.989 0L1.356 6.004C-.327 3.91 1.164.799 3.85.799h36.793c2.686 0 4.177 3.11 2.494 5.205L24.74 28.896z"/></symbol><symbol id="icon-simple-line-icons_paper-clip" viewBox="0 0 35 32"><path fill="#cdcdcd" style="fill:var(--color1,#cdcdcd)" d="M6.3 31.999c-1.489 0-2.811-.559-3.967-1.677C1.111 29.139.5 27.704.5 26.016s.611-3.124 1.833-4.306L21.5 2.033c.978-.968 2.106-1.591 3.383-1.871s2.572-.204 3.883.226 2.522 1.172 3.633 2.226c.356.366.683.769.983 1.21s.544.903.733 1.387a8.796 8.796 0 0 1 .583 3.145c-.044 2.28-.844 4.183-2.4 5.71l-14.5 14.903c-.2.215-.444.328-.733.339s-.539-.081-.75-.274a1 1 0 0 1-.333-.726c-.011-.29.083-.543.283-.758l14.5-14.903c1.178-1.161 1.778-2.602 1.8-4.323s-.544-3.129-1.7-4.226c-.711-.71-1.5-1.247-2.367-1.613s-1.8-.484-2.8-.355-1.889.57-2.667 1.323L3.864 23.13c-.822.796-1.233 1.753-1.233 2.871s.411 2.075 1.233 2.871c.378.366.789.64 1.233.823s.911.253 1.4.21c.978-.043 1.889-.484 2.733-1.323l15.233-15.677a4.621 4.621 0 0 0 .634-.758c.111-.161.2-.333.267-.516s.111-.366.133-.548c.022-.183-.011-.371-.1-.565s-.222-.376-.4-.548c-.422-.43-.833-.624-1.233-.581-.422.043-.9.312-1.433.806L10.864 22.001c-.133.129-.289.22-.467.274s-.361.059-.55.016a.997.997 0 0 1-.483-.258c-.222-.194-.333-.43-.333-.71s.1-.527.3-.742L20.798 8.742c.911-.86 1.833-1.333 2.767-1.419 1.067-.086 2.044.301 2.933 1.161.844.796 1.217 1.731 1.117 2.806s-.639 2.086-1.617 3.032l-15.233 15.71c-1.244 1.204-2.633 1.849-4.167 1.936-.044 0-.094.005-.15.016s-.106.016-.15.016z"/></symbol></defs></svg>