<?xml version="1.0" standalone="no"?>
<!DOCTYPE svg PUBLIC "-//W3C//DTD SVG 20010904//EN"
 "http://www.w3.org/TR/2001/REC-SVG-20010904/DTD/svg10.dtd">
<svg version="1.0" xmlns="http://www.w3.org/2000/svg"
 width="700.000000pt" height="700.000000pt" viewBox="0 0 700.000000 700.000000"
 preserveAspectRatio="xMidYMid meet">
<metadata>
Created by potrace 1.14, written by Peter Selinger 2001-2017
</metadata>
<g transform="translate(0.000000,700.000000) scale(0.100000,-0.100000)"
fill="#000000" stroke="none">
<path d="M3550 6560 c0 -5 -5 -10 -11 -10 -6 0 -33 -11 -61 -25 -27 -14 -56
-25 -64 -25 -8 0 -14 -4 -14 -10 0 -5 -6 -10 -14 -10 -7 0 -38 -13 -68 -29
-31 -17 -58 -28 -60 -25 -3 2 -11 -2 -18 -11 -7 -8 -20 -15 -30 -15 -10 0 -23
-7 -30 -15 -7 -8 -19 -15 -27 -15 -14 0 -94 -38 -103 -49 -3 -3 -11 -7 -18 -9
-14 -3 -124 -53 -271 -125 -46 -22 -90 -40 -97 -40 -8 0 -14 -3 -14 -7 0 -9
-52 -34 -66 -32 -6 1 -17 -5 -24 -13 -7 -8 -21 -15 -31 -15 -11 0 -19 -4 -19
-10 0 -5 -3 -9 -7 -8 -5 1 -37 -12 -73 -29 -36 -17 -72 -33 -80 -35 -8 -2 -17
-6 -20 -9 -7 -9 -159 -79 -171 -79 -5 0 -9 -4 -9 -9 0 -9 -48 -26 -62 -23 -5
1 -8 -3 -8 -8 0 -6 -9 -10 -19 -10 -11 0 -21 -5 -23 -11 -2 -5 -10 -11 -18
-13 -24 -4 -74 -30 -82 -41 -4 -5 -8 -7 -8 -2 0 4 -21 -4 -47 -17 -75 -38
-200 -96 -208 -96 -4 0 -14 -8 -22 -17 -8 -10 -12 -13 -8 -6 3 7 -20 -1 -51
-17 -31 -17 -62 -30 -70 -30 -8 0 -14 -4 -14 -9 0 -5 -12 -12 -27 -16 -15 -3
-30 -11 -34 -16 -3 -5 -14 -11 -25 -13 -10 -2 -32 -11 -49 -20 -16 -9 -36 -16
-42 -16 -7 0 -13 -4 -13 -10 0 -5 -6 -10 -13 -10 -7 0 -30 -9 -51 -20 -22 -10
-43 -17 -49 -13 -6 3 -7 1 -3 -5 3 -6 -4 -14 -16 -18 -13 -4 -83 -35 -155 -70
l-133 -63 0 -1748 0 -1748 33 -14 c28 -13 144 -67 287 -135 25 -11 48 -25 51
-29 3 -5 10 -9 15 -9 5 0 20 -5 34 -11 14 -6 27 -11 30 -12 3 -1 40 -18 83
-38 42 -20 79 -36 81 -34 2 1 14 -7 26 -18 12 -11 23 -18 24 -17 1 4 95 -38
266 -120 69 -33 142 -67 163 -75 20 -8 37 -18 37 -22 0 -4 7 -8 15 -8 8 0 51
-18 97 -40 46 -22 98 -47 116 -54 17 -8 32 -17 32 -21 0 -5 3 -7 8 -6 4 1 20
-4 35 -10 16 -7 33 -12 38 -12 5 0 9 -4 9 -10 0 -5 5 -10 10 -10 6 0 54 -21
108 -47 53 -26 99 -47 102 -48 3 -1 37 -16 75 -34 142 -67 232 -110 320 -151
50 -23 112 -53 138 -66 27 -13 55 -24 62 -24 8 0 18 -7 23 -16 5 -9 12 -15 15
-15 4 1 9 0 12 0 3 -1 8 -2 13 -3 7 -2 113 -52 231 -109 35 -17 70 -32 78 -33
9 -2 49 13 90 32 40 19 84 39 96 44 12 6 29 14 37 19 8 5 40 21 70 34 30 14
96 45 145 68 50 24 92 43 95 44 3 0 29 13 58 28 30 15 60 27 68 27 8 0 14 5
14 11 0 5 4 8 9 5 5 -4 11 -3 13 2 3 9 120 62 136 62 6 0 12 4 14 8 2 4 33 21
71 37 37 15 67 32 67 37 0 4 7 8 15 8 8 0 71 27 140 60 69 33 130 60 135 60 6
0 10 5 10 11 0 5 4 8 9 4 5 -3 12 -1 16 5 3 5 15 10 25 10 10 0 20 5 22 11 2
5 10 12 18 14 38 8 60 18 60 26 0 5 3 8 8 7 4 -1 34 11 67 27 33 16 62 29 65
30 3 0 58 26 123 58 65 31 120 57 122 57 2 0 79 36 170 80 91 44 167 80 169
80 3 0 217 101 356 168 30 15 57 27 60 28 41 13 50 18 50 25 0 5 3 8 8 7 4 -1
17 3 28 10 l22 12 0 1745 0 1745 -112 54 c-138 66 -198 94 -211 96 -5 1 -17 8
-27 16 -9 9 -22 16 -30 18 -13 2 -128 55 -231 107 -31 16 -63 29 -71 29 -7 0
-19 6 -25 14 -7 8 -26 18 -42 21 -16 4 -29 11 -29 17 0 6 -3 9 -6 5 -4 -3 -46
14 -95 39 -49 24 -89 41 -89 37 0 -5 -7 1 -15 11 -8 11 -15 16 -15 12 0 -4
-12 0 -27 8 -16 8 -68 33 -118 56 -49 23 -102 48 -117 56 -16 8 -28 12 -28 7
0 -4 -4 -3 -8 3 -5 8 -88 52 -112 59 -40 13 -70 29 -70 38 0 6 -2 8 -6 5 -3
-3 -33 8 -67 25 -34 17 -68 30 -74 28 -7 -1 -13 3 -13 8 0 10 -39 27 -52 23
-5 -1 -8 3 -8 8 0 5 -3 9 -7 8 -5 -1 -19 4 -33 12 -14 8 -31 15 -39 16 -8 2
-17 7 -20 12 -3 5 -17 13 -30 17 -13 4 -65 27 -117 52 -51 24 -97 44 -101 44
-4 0 -15 6 -23 13 -8 7 -27 16 -42 20 -16 3 -28 11 -28 16 0 6 -6 10 -13 10
-8 0 -41 14 -75 30 -34 17 -67 30 -72 30 -6 0 -10 5 -10 10 0 6 -6 10 -14 10
-12 0 -280 123 -328 150 -23 13 -48 13 -48 0z"/>
</g>
</svg>
